<svg version="1" xmlns="http://www.w3.org/2000/svg" width="1365.333" height="1365.333" viewBox="0 0 1024.000000 1024.000000"><path d="M897 9.1c-166.5 3.5-295.6 17.5-401.6 43.4-128.9 31.6-226.3 80.8-294.3 148.6C108.9 293 51.8 435.8 26 638.4 14.4 730.1 8 850.8 8 980.7v35.3h34.8c64.2-.1 146.2-2.3 202.2-5.5 135.4-7.9 249.8-25.9 336.9-53.2 8-2.5 16.2-5 18.1-5.5 5.7-1.7 34.6-12.2 48-17.6 69.6-27.9 129.9-66.3 174.8-111.1 95.4-95.5 153.7-247.4 178.1-464.1 9.5-84 15-200.7 15.1-317.3V8l-41.7.2c-23 .1-57.8.5-77.3.9zM235.5 202c138.7 8.2 264.9 59 371.2 149.5 17.5 14.9 51.3 48.8 66.8 67 81.4 95.6 131.7 211.1 145.4 334.1 2.3 20 4.1 47.7 4.1 61.4v9H719.3l-.6-17.8c-4.4-118.9-47.5-229.5-124.8-319.7-13.2-15.4-40-42.2-55.4-55.4-35.9-30.8-78.7-58.4-119.5-77.1-63.9-29.4-130.1-45.1-200.2-47.7l-17.8-.6V201h8.8c4.8 0 16.4.5 25.7 1zM227 409c63.9 4.3 123.9 22.1 178 52.8C506 519 578.6 615.9 604.9 728.6c6 25.4 9.4 51.1 10.7 79.1l.7 15.3h-104l-.6-15.3c-3.1-74-31.6-142.9-81-195.3-4.3-4.5-7.7-8.9-7.7-9.8 0-.9-.8-1.6-1.8-1.6-1.1 0-2.7-1-3.8-2.1-1-1.2-6.4-6.1-11.9-10.8-39.1-33.7-86-57.2-136.5-68.5-16.8-3.7-29.2-5.4-49.7-6.8l-18.3-1.2V408h5.8c3.1 0 12.2.5 20.2 1zm24.9 196.3c5.2 1.6 8 3 9.4 4.9 3.3 4.4.5 10.3-5.4 11.5-1.6.3-2.9 1.1-2.9 1.7.1 1.3 5.8 21.7 6.2 22.1.2.2 2.5.5 5.2.6l4.8.4 9.1-15.7c9.9-17.2 11.9-19.2 17.6-16.9 3.3 1.4 5.4 5.4 4.5 8.5-.4 1.1-4.2 8.3-8.6 15.9l-8 13.7 5.1 4.6c7.5 6.7 11.5 15.5 12 26.1.4 9.6-1.3 15.8-6.5 23.4l-3.4 5.1 2.8 2.6c1.6 1.5 3.3 3.6 3.9 4.6 1.1 1.9 1.3 1.9 7.2-.8 12.3-5.5 27.2-6.9 43.2-4.1 37.3 6.5 65 32.5 58.5 54.8-4.4 15.1-22.6 24.3-46.5 23.5l-10.1-.3v13.3c0 12.8-.1 13.4-2.5 15.7-3 3-6.4 3.2-9.9.4l-2.6-2v-30.6l-5.7-2.1c-3.2-1.1-6.4-2.2-7.1-2.4-.8-.2-4.6 5.4-9.5 13.8-4.6 7.8-8.9 14.9-9.6 15.8-.8 1-2.9 1.6-5.1 1.6-3 0-4.3-.6-5.9-2.6-1.2-1.5-2.1-3.5-2.1-4.6 0-1 3.8-8.5 8.5-16.7 4.7-8.1 8.5-15 8.5-15.2 0-.2-3.6-4.1-7.9-8.6l-7.9-8.1-10.7 18.6c-5.9 10.3-11.7 19.7-12.8 20.9-2.6 2.9-7.9 3.1-10.7.3-3.7-3.7-2.6-7 8.5-26.2l10.5-18.2-4.3-1.1c-2.4-.6-5.7-2.1-7.3-3.2l-3-2.2-14.5 8.4c-7.9 4.7-15.5 8.5-16.7 8.5-2.8 0-14.7-6.4-17.9-9.7-2.9-2.8-2.9-7-.1-10s7.2-3 12.3.2c2.2 1.3 4.5 2.5 5.2 2.5.6 0 6.4-3 12.7-6.7 10.8-6.3 11.6-7 11.6-9.8 0-1.7.4-4.4.9-6.2.9-3.1.8-3.2-3.6-4.7-10.7-3.6-18-10.4-23.1-21.3-2.3-4.9-2.7-7.1-2.7-14.8 0-8 .4-9.7 3.1-15.6 3-6.3 8.4-12.8 13.3-16.2l2.4-1.6-5.1-19.3c-2.9-10.7-5.2-20.4-5.2-21.8 0-3.5 3.7-7 7.4-7 1.7 0 6.4 1 10.5 2.3z"/></svg>