<svg version="1" xmlns="http://www.w3.org/2000/svg" width="1365.333" height="1365.333" viewBox="0 0 1024.000000 1024.000000"><path d="M897 9.1c-226 4.7-385.1 28.8-512 77.6-67.8 26.1-131.8 64.6-174 104.8l-7.5 7.2 24 1.1c38.5 1.9 72.7 6.4 107.9 14.2C491 248.7 627.2 341.5 717.2 474c57.1 84 92.4 179.6 103.7 280.5 2.1 18.9 4.1 47.6 4.1 59.3v7l7.3-7.7C916 725.7 971.7 583 996.9 391.5c12.5-94.8 19-214.7 19.1-349.3V8l-41.2.2c-22.7 0-57.7.5-77.8.9z"/><path d="M188.3 214.4C110.8 298.2 58.4 426 32.1 595.4 16.3 697 8 829.3 8 980.7v35.3h34.3c59.4 0 143.8-2.2 194.7-5 139.4-7.8 256.3-26 344.9-53.7 8-2.5 16.2-5 18.1-5.5 5.2-1.5 33.9-12 46-16.8 65.5-26.1 125.2-62.8 167.8-103.1l7.2-6.9H720.3l-.6-20.3C715 653.3 641 508.8 519.5 413.9 432.9 346.3 327 307.6 219.3 304.3l-20.3-.6-.2-50.2-.3-50.1-10.2 11zm34.2 194c16.3.6 40.8 3.6 58.5 7.2 117.9 23.7 220.2 97.3 280.1 201.6 31.9 55.7 51.7 121.7 54.4 181.8.3 6.9.8 15.5 1 19.2l.5 6.8H512.3l-.6-15.3c-2.8-66.9-25.3-127.5-66.8-179.8-10.3-13-35.2-38-48.4-48.4-16.3-13.1-36.8-26.1-56.5-35.8-40.6-20.2-76.4-29.8-122.7-32.9l-18.3-1.2V407.1l4.8.4c2.6.3 11 .7 18.7.9zm27.4 198.9c5.3 1.6 8 3 9.4 4.9 3.3 4.4.5 10.3-5.4 11.5-1.6.3-2.9 1.1-2.9 1.7.1 1.3 5.8 21.7 6.2 22.1.2.2 2.5.5 5.2.6l4.8.4 9-15.6c10.9-19 13.8-21.1 20-14.9 3.9 4 3.7 4.9-6.4 22.2l-8 13.8 5.1 4.6c7.5 6.7 11.5 15.5 12 26.1.4 9.6-1.3 15.8-6.5 23.4l-3.4 5.1 2.8 2.6c1.6 1.5 3.3 3.6 3.9 4.6 1.1 1.9 1.3 1.9 7.2-.8 12.3-5.5 27.2-6.9 43.2-4.1 37.3 6.5 65 32.5 58.5 54.8-4.4 15.1-22.6 24.3-46.5 23.5l-10.1-.3v13.3c0 12.8-.1 13.4-2.5 15.7-3 3-6.4 3.2-9.9.4l-2.6-2v-30.6l-7.2-2.7c-3.9-1.4-7.2-2.5-7.3-2.4-.1.2-3.5 6.1-7.6 13.3-8.3 14.6-10.7 17.5-14.4 17.5-3.4 0-7.5-4.2-7.5-7.6 0-1.5 3.5-8.7 8-16.6 4.4-7.7 8-14.1 8-14.3 0-.1-3.6-3.8-7.9-8.3l-8-8-10.7 18.6c-5.8 10.3-11.6 19.7-12.7 20.9-2.6 2.9-7.9 3.1-10.7.3-3.7-3.7-2.6-7 8.5-26.2l10.5-18.2-4.3-1.1c-2.4-.6-5.7-2.1-7.3-3.2l-3-2.1-14.7 8.4c-8 4.6-15.6 8.4-16.8 8.4-2.5 0-14.5-6.6-17.6-9.7-2.9-2.8-2.9-7-.1-10s7.2-3 12.3.2c2.2 1.3 4.5 2.5 5.2 2.5.6 0 6.4-3 12.7-6.7 10.8-6.3 11.6-7 11.6-9.8 0-1.7.4-4.4.9-6.2.9-3.1.8-3.2-3.6-4.7-10.7-3.6-18-10.4-23.1-21.3-2.3-4.9-2.7-7.1-2.7-14.8 0-8 .4-9.7 3.1-15.6 3-6.3 8.4-12.8 13.3-16.2l2.4-1.6-5.1-19.4c-2.9-10.7-5.2-20.5-5.2-21.8 0-3.4 3.8-6.9 7.4-6.8 1.7 0 6.4 1 10.5 2.2z"/></svg>