<svg version="1" xmlns="http://www.w3.org/2000/svg" width="1365.333" height="1365.333" viewBox="0 0 1024.000000 1024.000000"><path d="M796 151.1c-172.6 4.9-301.5 29.4-394.1 75-28.8 14.2-51.5 28.2-73.9 45.5-23.6 18.2-54.3 51.4-72.2 78.1-56.7 84.5-89.2 202.5-100.7 365.3-2.6 36.1-3.9 68.1-4.7 118.2l-.7 39.8h18.4c45.1 0 122.2-3.1 162.9-6.5 172-14.6 292.5-53.6 373.3-121 92.9-77.6 145-210.6 162.2-414.5 3.4-40.7 6.5-117.8 6.5-162.8V150l-24.7.2c-13.7 0-37.2.5-52.3.9zM389.7 352.5C514.5 368 619.8 455 658.3 574.5c9 28 13.7 54.6 15.3 86.2l.7 13.3h-54.1l-.7-11.7c-4.2-70.8-30.5-130.3-79-178.8s-108-74.8-178.7-79l-11.8-.7v-54.1l13.8.7c7.6.3 19.3 1.3 25.9 2.1zm-14.7 107c64.3 7.7 120.5 42.6 156.3 97 8.5 12.9 18.8 34.3 23.6 49 6.4 19.6 11.1 46.1 11.1 62.5v6h-53.7l-.7-11.1c-4.9-80.9-69.2-144.8-151.3-150.5l-10.3-.7V458h6.8c3.7 0 11.9.7 18.2 1.5zm35.2 115.6C432.8 579.8 450 601 450 624c0 27-23 50-50 50s-50-23-50-50c0-22.5 16.4-43.3 38.3-48.6 6.6-1.6 15.2-1.7 21.9-.3z"/></svg>