<svg version="1" xmlns="http://www.w3.org/2000/svg" width="1365.333" height="1365.333" viewBox="0 0 1024.000000 1024.000000"><path d="M897 9.1c-189.5 4-331 21.5-446.6 55.5-105.5 31-189.7 77.1-249.3 136.5C108.9 293 51.8 435.8 26 638.4 14.4 730.1 8 850.8 8 980.7v35.3h34.3c59.4 0 143.8-2.2 194.7-5 139.4-7.8 256.3-26 344.9-53.7 8-2.5 16.2-5 18.1-5.5 12.4-3.6 49.8-18 70-27 122.1-54.6 199.8-132 253.8-252.8 48.2-107.7 76.1-245.6 86.7-428 3.2-55.9 5.4-138 5.5-201.8V8l-41.2.2c-22.7 0-57.7.5-77.8.9zM235.5 202c139.2 8.2 266.2 59.5 372.5 150.6 14.4 12.3 49.6 47.4 61.6 61.4C762.2 521.8 813.5 647.6 822 787.7c.5 9.5 1 21.3 1 26.3v9H719.3l-.6-17.8c-4.4-119-47.5-229.5-124.8-319.7-13.2-15.4-40-42.2-55.4-55.4-36-30.8-78.7-58.4-119.5-77.1-64.3-29.5-129.6-45.1-200.2-47.7l-17.8-.6V201h8.8c4.8 0 16.4.5 25.7 1zM227 409c39.4 2.7 73.1 9.5 110.6 22.4 89.2 30.6 167.1 93.4 217 174.9 37.4 60.9 57.7 127.9 61 201.4l.7 15.3h-104l-.6-15.3c-3.1-74-31.6-142.9-81-195.3-4.3-4.5-7.7-8.9-7.7-9.8 0-.9-.7-1.6-1.6-1.6-.9 0-4.8-3-8.8-6.7-38.7-36-90-62.7-143.6-74.7-16.8-3.7-29.2-5.4-49.7-6.8l-18.3-1.2V408h5.8c3.1 0 12.2.5 20.2 1zm24.9 196.3c5.3 1.6 8 3 9.4 4.9 3.3 4.4.5 10.3-5.4 11.5-1.6.3-2.9 1.1-2.9 1.7.1 1.3 5.8 21.7 6.2 22.1.2.2 2.5.5 5.2.6l4.8.4 9-15.6c10.9-19 13.8-21.1 20-14.9 3.9 4 3.7 4.9-6.4 22.2l-8 13.8 5.1 4.6c7.5 6.7 11.5 15.5 12 26.1.4 9.6-1.3 15.8-6.5 23.4l-3.4 5.1 2.8 2.6c1.6 1.5 3.3 3.6 3.9 4.6 1.1 1.9 1.3 1.9 7.2-.8 12.3-5.5 27.2-6.9 43.2-4.1 37.3 6.5 65 32.5 58.5 54.8-4.4 15.1-22.6 24.3-46.5 23.5l-10.1-.3v13.3c0 12.8-.1 13.4-2.5 15.7-3 3-6.4 3.2-9.9.4l-2.6-2v-30.6l-5.7-2.1c-3.2-1.1-6.4-2.2-7.1-2.4-.8-.2-4.7 5.5-9.8 14.2-4.6 8-9.1 15.1-10.1 15.7-3 2.3-7.9 1.6-10.2-1.3-1.2-1.5-2.1-3.5-2.1-4.6 0-1 3.8-8.5 8.5-16.7 4.7-8.1 8.5-15 8.5-15.3 0-.3-3.6-4.1-7.9-8.6l-8-8-10.7 18.6c-5.8 10.3-11.6 19.7-12.7 20.9-2.6 2.9-7.9 3.1-10.7.3-3.7-3.7-2.6-7 8.5-26.2l10.5-18.2-4.3-1.1c-2.4-.6-5.7-2.1-7.3-3.2l-3-2.1-14.7 8.4c-8 4.6-15.6 8.4-16.8 8.4-2.5 0-14.5-6.6-17.6-9.7-2.9-2.8-2.9-7-.1-10s7.2-3 12.3.2c2.2 1.3 4.5 2.5 5.2 2.5.6 0 6.4-3 12.7-6.7 10.8-6.3 11.6-7 11.6-9.8 0-1.7.4-4.4.9-6.2.9-3.1.8-3.2-3.6-4.7-10.7-3.6-18-10.4-23.1-21.3-2.3-4.9-2.7-7.1-2.7-14.8 0-8 .4-9.7 3.1-15.6 3-6.3 8.4-12.8 13.3-16.2l2.4-1.6-5.1-19.4c-2.9-10.7-5.2-20.5-5.2-21.8 0-3.4 3.8-6.9 7.4-6.8 1.7 0 6.4 1 10.5 2.2z"/></svg>