<?xml version="1.0" encoding="UTF-8"?>
<svg width="1024px" height="1024px" viewBox="0 0 1024 1024" version="1.1" xmlns="http://www.w3.org/2000/svg" xmlns:xlink="http://www.w3.org/1999/xlink">
    <!-- Generator: Sketch 61.2 (89653) - https://sketch.com -->
    <title>rssant-avatar</title>
    <desc>Created with Sketch.</desc>
    <defs>
        <circle id="path-1" cx="512" cy="512" r="512"></circle>
    </defs>
    <g id="page" stroke="none" stroke-width="1" fill="none" fill-rule="evenodd">
        <g id="avatar/fullsize">
            <mask id="mask-2" fill="white">
                <use xlink:href="#path-1"></use>
            </mask>
            <use id="mask_cycle" fill="#FFFFFF" xlink:href="#path-1"></use>
            <g id="logo/fullsize" mask="url(#mask-2)">
                <g transform="translate(158.000000, 158.000000)">
                    <g id="atomic/leaf">
                        <path d="M603.597564,103.709331 C603.560726,241.824785 592.407482,411.52334 501.960938,501.960938 C411.375507,592.537408 241.241402,603.597656 103.019531,603.597656 L103.711035,603.598425 C103.750203,465.483089 115.589993,296.476842 206.039062,206.039062 C296.624129,115.465304 466.069538,103.710938 604.289062,103.710938 Z" id="leaf" fill="#788E9E"></path>
                    </g>
                    <g id="atomic/rss" transform="translate(241.992188, 241.992188)">
                        <rect id="rect" fill="#788E9E" x="0" y="0" width="224.015625" height="224.015625"></rect>
                        <g id="atomic-rss" stroke-width="1" fill="#FFFFFF">
                            <path d="M0,0 C122.483209,0 222.007378,98.2993369 223.985613,220.311117 L224.015625,224.015625 L186.585166,224.015625 L186.560169,220.930098 C184.928951,120.321346 103.667432,39.0699266 3.05473083,37.4549591 L0,37.4304589 L0,0 Z" id="bow_2"></path>
                            <path d="M0,74.5989532 C81.6953437,74.5989532 148.077187,140.163843 149.396654,221.544747 L149.416672,224.015625 L111.991623,224.015625 L111.976619,222.163639 C111.991473,161.684399 62.2428529,113.006196 1.83380012,112.03868 L0,112.024002 L0,74.5989532 Z" id="bow_1"></path>
                            <circle id="cycle" cx="34.5649109" cy="189.450714" r="34.5649109"></circle>
                        </g>
                    </g>
                </g>
            </g>
        </g>
    </g>
</svg>